<?xml version="1.0" encoding="utf-8"?>
<!-- Generator: Adobe Illustrator 21.1.0, SVG Export Plug-In . SVG Version: 6.00 Build 0)  -->
<svg version="1.1" xmlns="http://www.w3.org/2000/svg" xmlns:xlink="http://www.w3.org/1999/xlink" x="0px" y="0px"
	 viewBox="0 0 394.3 369.2" style="enable-background:new 0 0 394.3 369.2;" xml:space="preserve">
<style type="text/css">
	.st0{fill:#262626;}
	.st1{fill:#3BBCB8;}
	.st2{fill:#E2CBAC;}
	.st3{fill:#F4E1C3;}
	.st4{fill:#594D3E;}
	.st5{fill:#8E8E8D;}
	.st6{fill:#D3D3D3;}
	.st7{fill:#FFFFFF;}
	.st8{fill:#E2CA1E;}
	.st9{fill:#EFD75E;}
	.st10{fill:#303030;}
	.st11{fill:#0F436D;}
	.st12{fill:#0C1A4C;}
	.st13{fill:#102451;}
	.st14{fill:#F2F2F0;}
	.st15{fill:#FFE600;}
	.st16{fill:#51774D;}
	.st17{fill:#615D82;}
	.st18{fill:#A8836A;}
	.st19{fill:#468482;}
	.st20{fill:#6C754C;}
	.st21{fill:#B2A29D;}
	.st22{fill:#2A208E;}
	.st23{opacity:0.85;}
	.st24{fill:#628789;}
	.st25{fill:#F7931E;}
	.st26{fill:#E8A15B;}
	.st27{fill:#E5865C;}
	.st28{fill:#C48065;}
	.st29{fill:#7E74B2;}
	.st30{fill:#4444AD;}
	.st31{fill:#3D7099;}
</style>
<g id="Layer_1">
	<g id="Layer_7">
		<circle class="st0" cx="200.7" cy="190.4" r="173.3"/>
	</g>
	<g id="Layer_6">
		<circle class="st1" cx="255" cy="177.4" r="36"/>
	</g>
	<g id="me">
		<path class="st2" d="M244.6,198.8l-0.5,2.8c0,0,7.8,1.2,7.8,0.3c-0.1-1-0.5-3.5-0.5-3.5S244.6,198.1,244.6,198.8z"/>
		<path class="st3" d="M227.9,183.8c0,0-1.7,13.7,19.3,15.7c0,0,18.8,2,21.7-14.5s-17.8-12.6-17.8-12.6l-22.9,8.3L227.9,183.8z"/>
		<path class="st4" d="M249.2,192.6c-4-0.2-3.6-1.1-3.6-1.1s-0.7,0.9,0.5,1.4S249.2,192.6,249.2,192.6z"/>
		<path class="st5" d="M251.5,186.3c-3.8-1.8-6.9-0.1-6.9-0.1l0.2,1.8c0,0,2.7-2.4,6.2,0L251.5,186.3z"/>
		<path class="st6" d="M251.3,186.1c-3.8-1.8-6.9-0.1-6.9-0.1l0.2,1.8c0,0,2.7-2.4,6.2,0L251.3,186.1z"/>
		<path class="st6" d="M231,185c0,0,8.4-4.1,12.6-0.2c4.2,3.9-3.2,7.1-3.2,7.1s-5.5,1.9-8.4-0.3C229.2,189.5,231,185,231,185z"/>
		<path class="st6" d="M264.8,185.1c0,0-8.5-4-12.6,0s3.3,7.1,3.3,7.1s5.5,1.9,8.4-0.4S264.8,185.1,264.8,185.1z"/>
		<path class="st5" d="M231,184.4c0,0,8.4-4.1,12.6-0.2c4.2,3.9-3.2,7.1-3.2,7.1s-5.5,1.9-8.4-0.3S231,184.4,231,184.4z"/>
		<path class="st5" d="M264.8,184.5c0,0-8.5-4-12.6,0s3.3,7.1,3.3,7.1s5.5,1.9,8.4-0.4C266.6,188.9,264.8,184.5,264.8,184.5z"/>
		<path class="st7" d="M231.2,184c0,0,8.4-4.1,12.6-0.2c4.2,3.9-3.2,7.1-3.2,7.1s-5.5,1.9-8.4-0.3C229.4,188.5,231.2,184,231.2,184z
			"/>
		<path class="st7" d="M264.4,184.1c0,0-8.5-4-12.6,0s3.3,7.1,3.3,7.1s5.5,1.9,8.4-0.4C266.3,188.6,264.4,184.1,264.4,184.1z"/>
		<path class="st8" d="M239.4,203.8c0,0-1.1,0.4-1.4,1.5c-0.3,1.2-2.4,8.4-2.1,10.7c0.2,2.3,1.3,9.9,1,10.3
			c-0.3,0.4,0.4,0.4,0.5,0.6c0.1,0.2,1.3,0.7,1.3,0.7l1.1-1.4l1.9-22L239.4,203.8z"/>
		<path class="st8" d="M258.9,204.7c0,0,1.5,0.6,2.2,2.3s0.4,6.3,0.6,7.1s0.6,8.1,0.3,10.3l-0.1,1.1c0,0-1.6,0.2-2.1,0.6
			c-0.4,0.4-0.9-1-0.9-1l-1.8-19.2l1.1-1.2L258.9,204.7z"/>
		<path class="st9" d="M244.5,200.7c0,0,4.4,2,7.7,0c0,0,0.9-0.8,6.8,3.9c0,0-0.5,1.3-0.2,1.8s-0.2,1.6-0.2,1.6l0.1,0.6l-0.1,1.2
			l0.1,1.2c0,0-0.4,0.4-0.4,0.5c0.1,0.2,0.2,0.9,0.2,0.9l-0.1,0.9l0.4,0.9l1.4,5.3l-0.2,4.9l-0.1,0.9c0,0-19.4,0.6-19.6,1
			c-0.2,0.4-1.8,0.1-1.8,0.1s1.4-13.1,2.1-15.3c0,0,0.3-2.8-0.1-3.5s-0.3-2.1-0.3-2.1l-0.8-1.7c0,0,3.7-3.7,4.4-3.4
			C244.5,200.7,244.5,200.7,244.5,200.7z"/>
		<path class="st10" d="M225.3,196.7c-0.5-5.4,1.5-13.4,1.5-13.4l2.3-1.2L225.3,196.7z"/>
		<path class="st10" d="M226.5,197.3c-0.5-5.8,1.6-14.3,1.6-14.3l2.3-1.2L226.5,197.3z"/>
		<path class="st10" d="M229.2,198.2c-3.3-8.4,0.2-16.6,0.2-16.6l3-0.8c0,0-3,7.3-2.9,9.9C229.5,193.3,229.2,198.2,229.2,198.2z"/>
		<path class="st10" d="M230.6,199.9c-3.3-8.8,0.3-17.5,0.3-17.5l3-0.9c0,0-3,7.8-3,10.5C230.9,194.7,230.6,199.9,230.6,199.9z"/>
		<path class="st10" d="M232.5,198.6c-4.8-7.6-2.9-16.3-2.9-16.3l2.8-1.3c0,0-1.6,7.8-1.1,10.3C231.9,193.7,232.5,198.6,232.5,198.6
			z"/>
		<path class="st10" d="M233.9,198c-5.5-6.8-3.1-14.8-3.1-14.8l3.3-1.3c0,0-2,7.1-1.4,9.4C233.3,193.6,233.9,198,233.9,198z"/>
		<path class="st10" d="M270.9,197.8c1.2-5.4,0.1-13.5,0.1-13.5l-2.1-1.4L270.9,197.8z"/>
		<path class="st10" d="M269.6,198.3c1.2-5.7,0.1-14.4,0.1-14.4l-2.1-1.5L269.6,198.3z"/>
		<path class="st10" d="M266.8,198.8c4.3-7.9,1.8-16.5,1.8-16.5l-2.9-1.2c0,0,2.1,7.6,1.8,10.2C267.2,193.9,266.8,198.8,266.8,198.8
			z"/>
		<path class="st10" d="M265.3,200.3c4.3-8.3,1.8-17.4,1.8-17.4l-2.9-1.2c0,0,2.1,8.1,1.8,10.7C265.6,195.2,265.3,200.3,265.3,200.3
			z"/>
		<path class="st10" d="M263.5,198.8c5.7-7,4.8-15.8,4.8-15.8l-2.6-1.7c0,0,0.7,7.9-0.2,10.3C264.8,194,263.5,198.8,263.5,198.8z"/>
		<path class="st10" d="M262.2,198c6.3-6.1,4.8-14.4,4.8-14.4l-3.1-1.7c0,0,1.2,7.3,0.3,9.5C263.4,193.8,262.2,198,262.2,198z"/>
		<path class="st11" d="M266.7,174.6c0.1-0.5-3.6-6.9-3.6-6.9c-8.7-6.8-27.3-3.6-29.2,1c-0.9,2.2-3.8,6.2-6.7,9.6"/>
		<path class="st12" d="M227.4,178.4c2.9-3.5,39.3-3.8,39.3-3.8c-0.1,0.5,1.7-1.8,11,12.3c0,0-12.2-2.4-23.6-5.2
			c-11.3-2.8-32.9,3.9-32.9,3.9S224.3,182.3,227.4,178.4"/>
		<path class="st13" d="M277.7,186.9c-30.4-13.7-56.4-1.2-56.4-1.2l2.5-2.9c0,0,29.4-8,37.1-4.2c0,0,8.9,3,12.8,5.6L277.7,186.9z"/>
		<path class="st14" d="M245.9,219.8c0,0-5.1-2-1.2-9.1c0,0,3.1-5,7.3-2.6c4.2,2.4,1.6,9.4-2.6,9.6c0,0-1.1,0-1.5,0.9
			C247.5,219.5,247.3,220.3,245.9,219.8z"/>
		<path class="st15" d="M245.4,219c0,0-0.5-3,1.4-3.1s0.2,1.2,0.1,2C246.9,218.6,245.8,219.8,245.4,219z"/>
		<path class="st16" d="M252.9,212.9L252.9,212.9c0.1-0.3,0-0.6-0.4-0.6s-0.8,0.4-0.7,0.8c0,0.1,0.1,0.2,0.1,0.3l0,0
			c-0.3,0.1-0.4,0.4-0.3,0.6c0.1,0.3,0.4,0.3,0.6,0.3c0.4-0.1,0.7-0.4,0.7-0.7C253.1,213.3,253,213.1,252.9,212.9z"/>
		<path class="st17" d="M251.3,209.6C251.2,209.6,251.2,209.6,251.3,209.6c0.1-0.3,0-0.6-0.4-0.6s-0.8,0.4-0.7,0.8
			c0,0.1,0.1,0.2,0.1,0.3l0,0c-0.3,0.1-0.4,0.4-0.3,0.6c0.1,0.3,0.4,0.3,0.6,0.3c0.4-0.1,0.7-0.4,0.7-0.7
			C251.4,209.9,251.4,209.7,251.3,209.6z"/>
		<path class="st18" d="M247.9,210.5L247.9,210.5c0.1-0.3,0-0.6-0.4-0.6s-0.8,0.4-0.7,0.8c0,0.1,0.1,0.2,0.1,0.3l0,0
			c-0.3,0.1-0.4,0.4-0.3,0.6c0.1,0.3,0.4,0.3,0.6,0.3c0.4-0.1,0.7-0.4,0.7-0.7C248.1,210.9,248,210.7,247.9,210.5z"/>
		<path class="st19" d="M246.4,213.1L246.4,213.1c0.1-0.3,0-0.6-0.4-0.6s-0.8,0.4-0.7,0.8c0,0.1,0.1,0.2,0.1,0.3l0,0
			c-0.3,0.1-0.4,0.4-0.3,0.6c0.1,0.3,0.4,0.3,0.6,0.3c0.4-0.1,0.7-0.4,0.7-0.7C246.6,213.5,246.6,213.3,246.4,213.1z"/>
		<path class="st20" d="M250.6,215.3L250.6,215.3c0.1-0.3,0-0.6-0.4-0.6s-0.8,0.4-0.7,0.8c0,0.1,0.1,0.2,0.1,0.3l0,0
			c-0.3,0.1-0.4,0.4-0.3,0.6c0.1,0.3,0.4,0.3,0.6,0.3c0.4-0.1,0.7-0.4,0.7-0.7C250.8,215.7,250.7,215.5,250.6,215.3z"/>
		<path class="st21" d="M252.2,219.4l2.9-2.4c0.1-0.1,0.3-0.1,0.4,0l0.7,0.8c0.1,0.1,0.1,0.3,0,0.4l-2.9,2.3c-0.1,0.1-0.3,0.1-0.4,0
			l-0.8-0.8C252.1,219.7,252.1,219.5,252.2,219.4z"/>
	</g>
	<g id="Layer_4">
		<circle class="st22" cx="321.3" cy="113" r="17.5"/>
		<g class="st23">
			<rect x="203.7" y="212.5" class="st24" width="97.1" height="59"/>
			<polyline class="st24" points="301,271.5 268.5,301.5 170.6,301.5 203,271.5 			"/>
			<polyline class="st24" points="170.6,301.5 170.6,305.3 268.7,305.3 268.7,301.5 			"/>
			<polygon class="st24" points="268.5,305.3 300.6,274.2 300.6,271.5 268.5,301.5 			"/>
			<rect x="206.6" y="216" class="st1" width="91.6" height="53.3"/>
		</g>
		<circle class="st25" cx="156.5" cy="136.2" r="27.6"/>
		<circle class="st26" cx="241.9" cy="71.6" r="27.4"/>
		<circle class="st27" cx="301.8" cy="126.4" r="25.2"/>
		<circle class="st28" cx="86.3" cy="216.3" r="20.5"/>
		<circle class="st29" cx="163.7" cy="232.2" r="11.7"/>
		<circle class="st30" cx="115" cy="157.2" r="17.5"/>
		<circle class="st31" cx="321" cy="168.7" r="6.6"/>
		<path class="st1" d="M219.1,142.3c-11.4,1.8-9.5,12.5-9.5,12.5l-2.1-1.5c0,0-2.5-11.5,9.7-12.8L219.1,142.3z"/>
		<path class="st1" d="M220.8,145.9c-8.6,1.3-7.2,9.5-7.2,9.5l-1.5-1.2c0,0-1.9-8.7,7.3-9.6L220.8,145.9z"/>
		<path class="st1" d="M221.5,149.9c-5.5,0.9-4.5,6-4.5,6l-1-0.7c0,0-1.2-5.5,4.6-6.1L221.5,149.9z"/>
		<path class="st1" d="M299.2,198.8c10.4-5,5.4-14.7,5.4-14.7l2.4,0.9c0,0,5.7,10.3-5.5,15L299.2,198.8z"/>
		<path class="st1" d="M296.6,195.8c7.9-3.8,4.1-11.1,4.1-11.1l1.8,0.7c0,0,4.4,7.8-4.2,11.3L296.6,195.8z"/>
		<path class="st1" d="M294.8,192.2c5-2.4,2.6-7.1,2.6-7.1l1.2,0.4c0,0,2.8,5-2.7,7.2L294.8,192.2z"/>
	</g>
	<g>
		<g>
			<path d="M265.4,205.1c0.4-0.2,0.8-0.1,1.2,0.1c0-0.2-0.1-0.3-0.1-0.5c0.2-0.1,0.3-0.2,0.6-0.3c0.2,1,0.3,1.4,0.4,2.4
				c0,0.1,0,0.2,0.1,0.3c0,0.1,0.1,0.1,0.1,0.1c0.1,0,0.1,0,0.2,0c0.1-0.1,0.3-0.2,0.5-0.5c0.2-0.3,0.2-0.6,0.2-0.9
				c0-0.3,0-0.6-0.2-0.8c-0.3-0.5-0.7-0.8-1.3-1c-0.6-0.2-1.2-0.1-1.8,0.2c-0.8,0.3-1.3,0.8-1.6,1.4c-0.4,0.7-0.4,1.4-0.2,2.2
				c0.2,0.7,0.7,1.2,1.4,1.5c0.7,0.2,1.6,0.1,2.5-0.3c0.6-0.2,1-0.5,1.4-0.9c0.1-0.1,0.3-0.3,0.4-0.5c0.1-0.2,0.2-0.4,0.3-0.6
				c0.2-0.1,0.4-0.2,0.6-0.3c0,0.3-0.1,0.6-0.3,1c-0.2,0.4-0.5,0.7-0.8,1c-0.3,0.3-0.8,0.5-1.3,0.7c-1.1,0.5-2.2,0.5-3,0.3
				c-0.8-0.3-1.3-0.9-1.6-1.7c-0.2-0.6-0.2-1.2,0-1.8c0.1-0.6,0.4-1.1,0.8-1.5c0.4-0.4,0.9-0.7,1.5-1c0.8-0.3,1.5-0.4,2.2-0.2
				c0.7,0.2,1.2,0.6,1.5,1.2c0.2,0.3,0.2,0.7,0.2,1.1c0,0.4-0.2,0.8-0.4,1.1c-0.2,0.3-0.5,0.6-0.9,0.7c-0.2,0.1-0.4,0.1-0.5,0.1
				s-0.2-0.1-0.3-0.3c-0.1,0.2-0.2,0.4-0.4,0.6c-0.2,0.2-0.3,0.3-0.5,0.3c-0.4,0.1-0.7,0.1-1.1-0.1c-0.3-0.2-0.6-0.5-0.7-0.8
				c-0.1-0.3-0.1-0.7-0.1-1c0.1-0.4,0.2-0.7,0.4-1C264.9,205.4,265.2,205.2,265.4,205.1z M265.1,207.4c0.1,0.3,0.2,0.4,0.4,0.5
				s0.4,0.1,0.6,0c0.3-0.1,0.6-0.4,0.7-0.8c0.1-0.4,0.1-0.8-0.1-1.2c-0.1-0.3-0.3-0.4-0.5-0.5c-0.2-0.1-0.4-0.1-0.6,0
				c-0.3,0.1-0.5,0.4-0.6,0.8C264.9,206.6,264.9,207,265.1,207.4z"/>
			<path d="M271.1,201c0.3-0.2,0.4-0.3,0.7-0.4c-0.1,1.1-0.2,1.6-0.3,2.7c0.5,0.8,0.7,1.2,1.2,2c-0.3,0.2-0.4,0.2-0.7,0.4
				c-0.5-0.8-0.7-1.2-1.2-2c-1.1-0.4-1.6-0.6-2.6-1c0.3-0.1,0.4-0.2,0.7-0.4c0.7,0.3,1.1,0.4,1.9,0.7
				C271,202.2,271.1,201.8,271.1,201z"/>
			<path d="M275.8,203.2c-0.1-0.1-0.1-0.2-0.2-0.3c0,0.2-0.1,0.4-0.2,0.6c-0.1,0.2-0.2,0.3-0.4,0.4c-0.2,0.1-0.4,0.2-0.6,0.2
				c-0.2,0-0.4,0-0.6-0.1c-0.2-0.1-0.4-0.3-0.6-0.6c-0.4-0.6-0.6-0.8-0.9-1.4c0.2-0.1,0.3-0.2,0.5-0.4c0.4,0.6,0.6,0.8,1,1.4
				c0.2,0.3,0.3,0.4,0.5,0.4c0.2,0,0.3,0,0.5-0.2c0.3-0.2,0.4-0.5,0.4-0.8c-0.5-0.7-0.8-1-1.3-1.7c0.2-0.2,0.3-0.2,0.5-0.4
				c0.7,0.9,1.1,1.4,1.8,2.3C276.1,203,276,203,275.8,203.2z"/>
			<path d="M276.3,198.9c0.4-0.3,0.5-0.5,0.9-0.8c1.2,1.3,1.9,1.9,3.1,3.2c-0.2,0.2-0.3,0.3-0.5,0.5c-0.4-0.5-0.6-0.7-1.1-1.1
				c-0.2,0.3-0.3,0.4-0.5,0.6c-0.4,0.3-0.8,0.5-1.2,0.5c-0.4,0-0.8-0.2-1-0.5c-0.3-0.4-0.4-0.7-0.3-1.1
				C275.7,199.6,276,199.3,276.3,198.9z M278.4,200.3c-0.5-0.5-0.8-0.8-1.3-1.4c-0.1,0.1-0.2,0.2-0.3,0.3c-0.2,0.2-0.3,0.3-0.4,0.4
				c-0.1,0.1-0.1,0.2-0.1,0.2s0,0.2,0,0.2c0,0.3,0.1,0.5,0.2,0.7c0.2,0.2,0.4,0.4,0.7,0.4c0.3,0,0.5-0.1,0.8-0.3
				c0.1-0.1,0.1-0.1,0.1-0.1C278.2,200.6,278.2,200.5,278.4,200.3C278.3,200.4,278.3,200.4,278.4,200.3
				C278.4,200.3,278.4,200.3,278.4,200.3z"/>
			<path d="M277.2,196.4c0.1-0.1,0.2-0.1,0.3-0.1c0.1,0,0.2,0,0.3,0.1c0.1,0.1,0.1,0.1,0.1,0.2s0,0.2-0.1,0.3
				c-0.1,0.1-0.2,0.1-0.3,0.1c-0.1,0-0.2,0-0.2-0.1c-0.1-0.1-0.1-0.1-0.1-0.2C277.1,196.6,277.1,196.5,277.2,196.4z M277.8,197.5
				c0.2-0.2,0.3-0.3,0.4-0.5c0.9,0.8,1.3,1.2,2.1,2c-0.2,0.2-0.3,0.3-0.5,0.5C279.1,198.8,278.7,198.3,277.8,197.5z"/>
			<path d="M280.1,192.4c0.2-0.3,0.3-0.4,0.5-0.7c0.3,1,0.4,1.6,0.7,2.7c0.8,0.6,1.1,0.9,1.9,1.4c-0.2,0.2-0.3,0.4-0.5,0.6
				c-0.7-0.6-1.1-0.9-1.9-1.5c-1.1,0-1.7,0-2.8,0c0.2-0.2,0.3-0.4,0.5-0.6c0.8,0,1.2,0,2,0C280.4,193.6,280.3,193.2,280.1,192.4z"/>
			<path d="M283.7,191.9c0.4,0.3,0.6,0.4,1.1,0.7c0.1,0.1,0.1,0,0.2,0c0-0.1,0.1-0.2,0.1-0.4c0.1,0.1,0.2,0.1,0.3,0.2
				c0,0.2,0,0.3,0,0.4c0,0.1-0.1,0.2-0.1,0.3c-0.2,0.3-0.3,0.3-0.5,0.3c0,0.3-0.1,0.7-0.3,0.9c-0.1,0.2-0.3,0.3-0.5,0.4
				c-0.2,0.1-0.4,0-0.6-0.1c-0.2-0.1-0.2-0.3-0.3-0.5c0-0.2,0-0.5,0.1-0.7c0.1-0.3,0.2-0.5,0.3-0.8c-0.1,0-0.1-0.1-0.1-0.1
				c-0.3-0.2-0.6-0.1-0.8,0.2c-0.2,0.3-0.3,0.7-0.2,1.1c-0.2-0.1-0.3-0.2-0.5-0.4c-0.1-0.4,0-0.7,0.3-1.1c0.2-0.3,0.4-0.5,0.7-0.6
				c0.1,0,0.2,0,0.3,0c0.1,0,0.2,0,0.3,0C283.4,191.7,283.5,191.8,283.7,191.9z M284.4,193.1c-0.3-0.2-0.4-0.3-0.7-0.5
				c0,0.2-0.1,0.3-0.1,0.5c-0.1,0.2-0.1,0.4-0.1,0.5c0,0.1,0.1,0.2,0.2,0.3c0.1,0.1,0.2,0.1,0.3,0.1c0.1,0,0.2-0.1,0.3-0.2
				C284.4,193.6,284.4,193.4,284.4,193.1z"/>
			<path d="M284,189.1c0.2-0.4,0.5-0.7,0.9-0.9c0.4-0.2,0.8-0.2,1.2,0c0.4,0.2,0.6,0.5,0.7,0.9c0.1,0.4,0,0.9-0.2,1.4
				c-0.2,0.5-0.6,0.8-1,0.9c-0.4,0.2-0.8,0.1-1.2-0.1c-0.4-0.2-0.6-0.5-0.7-1C283.7,189.9,283.8,189.5,284,189.1z M284.5,189.3
				c-0.1,0.3-0.2,0.5-0.1,0.8c0.1,0.3,0.2,0.5,0.5,0.6c0.2,0.1,0.5,0.2,0.8,0.1c0.3-0.1,0.5-0.3,0.6-0.6c0.2-0.3,0.2-0.6,0.1-0.9
				c-0.1-0.3-0.2-0.5-0.5-0.6c-0.3-0.1-0.5-0.1-0.8,0C284.8,188.9,284.6,189,284.5,189.3z"/>
		</g>
	</g>
</g>
<g id="signature">
</g>
</svg>
