<?xml version="1.0" encoding="utf-8"?>
<!-- Generator: Adobe Illustrator 21.1.0, SVG Export Plug-In . SVG Version: 6.00 Build 0)  -->
<svg version="1.1" xmlns="http://www.w3.org/2000/svg" xmlns:xlink="http://www.w3.org/1999/xlink" x="0px" y="0px"
	 viewBox="0 0 421 529" style="enable-background:new 0 0 421 529;" xml:space="preserve">
<style type="text/css">
	.st0{display:none;}
	.st1{display:inline;fill:#025358;}
	.st2{fill:#13A896;}
	.st3{fill:#1467A5;}
	.st4{fill:#FFD400;}
	.st5{font-family:'ArialMT';}
	.st6{font-size:36px;}
	.st7{fill:#025358;}
	.st8{fill:#030756;}
	.st9{font-size:47.3904px;}
	.st10{fill:none;stroke:#FFD400;stroke-width:6;stroke-miterlimit:10;}
	.st11{font-size:47.3905px;}
	.st12{font-size:20.0385px;}
	.st13{font-size:21.838px;}
	.st14{font-size:21px;}
	.st15{font-size:15px;}
	.st16{font-size:14px;}
</style>
<g id="background_1_" class="st0">
	<rect x="-102" y="23" class="st1" width="720" height="719"/>
</g>
<g id="Layer_5">
	<polygon class="st2" points="67,49.3 67,137.7 143.5,181.8 220,137.7 220,49.3 143.5,5.2 	"/>
	<polygon class="st3" points="235,49.3 235,137.7 311.5,181.8 388,137.7 388,49.3 311.5,5.2 	"/>
	<g>
		<text transform="matrix(1 0 0 1 273.4365 86.5068)"><tspan x="0" y="0" class="st4 st5 st6">Web</tspan><tspan x="5" y="43.2" class="st4 st5 st6">Dev</tspan></text>
	</g>
</g>
<g id="background">
	<path class="st7" d="M169.5,252.8h-51c-5.5,0-10-4.5-10-10v-51c0-5.5,4.5-10,10-10h51c5.5,0,10,4.5,10,10v51
		C179.5,248.3,175,252.8,169.5,252.8z"/>
	<path class="st7" d="M169.5,340.5h-51c-5.5,0-10-4.5-10-10v-51c0-5.5,4.5-10,10-10h51c5.5,0,10,4.5,10,10v51
		C179.5,336,175,340.5,169.5,340.5z"/>
	<path class="st7" d="M169.5,428.2h-51c-5.5,0-10-4.5-10-10v-51c0-5.5,4.5-10,10-10h51c5.5,0,10,4.5,10,10v51
		C179.5,423.7,175,428.2,169.5,428.2z"/>
	<path class="st7" d="M169.5,515.8h-51c-5.5,0-10-4.5-10-10v-51c0-5.5,4.5-10,10-10h51c5.5,0,10,4.5,10,10v51
		C179.5,511.3,175,515.8,169.5,515.8z"/>
	<path class="st8" d="M336.6,253h-51c-5.5,0-10-4.5-10-10v-51c0-5.5,4.5-10,10-10h51c5.5,0,10,4.5,10,10v51
		C346.6,248.5,342.1,253,336.6,253z"/>
	<path class="st8" d="M335.7,340.6h-51c-5.5,0-10-4.5-10-10v-51c0-5.5,4.5-10,10-10h51c5.5,0,10,4.5,10,10v51
		C345.7,336.1,341.2,340.6,335.7,340.6z"/>
	<path class="st8" d="M337.4,428.3h-51c-5.5,0-10-4.5-10-10v-51c0-5.5,4.5-10,10-10h51c5.5,0,10,4.5,10,10v51
		C347.4,423.8,342.9,428.3,337.4,428.3z"/>
	<path class="st8" d="M338.2,516.8h-51c-5.5,0-10-4.5-10-10v-51c0-5.5,4.5-10,10-10h51c5.5,0,10,4.5,10,10v51
		C348.2,512.3,343.7,516.8,338.2,516.8z"/>
</g>
<g id="skill_level">
	<path class="st2" d="M109.4,192.4c0,0,20-10.9,33.4-4.2c13.4,6.7,34.2,9.6,35.1,7.7s0,52.8,0,52.8l-2.5,3.8l-60.3,2.3l-5.6-9.1
		V192.4z"/>
	<path class="st2" d="M108.5,284.5c0,0,20-7.4,33.4-3.8c14.2,3.9,36.1,4.2,36.9,2.5c0.8-1.7,0,52.3,0,52.3l-3.9,5.1h-62.5l-3.9-7.9
		V284.5z"/>
	<path class="st2" d="M109.4,395c0,0,20-6.2,33.4-2.4c13.4,3.8,34.2,5.4,35.1,4.3c0.8-1.1,0,29.7,0,29.7l-2.5,2.2l-61.2-1.1
		l-4.8-2.7V395z"/>
	<path class="st3" d="M277,195.7c0,0,20-10.1,33.4-3.9s34.2,8.9,35.1,7.1c0.8-1.8,0,48.9,0,48.9l-2.5,3.6l-64.3,0.9l-2.3-5.6
		L277,195.7z"/>
	<path class="st3" d="M276.4,292.2c0,0,20-8.5,33.4-3.3c13.4,5.3,34.2,7.5,35.1,6c0.8-1.5,1.8,41.3,1.8,41.3l-4.3,3l-62.7,2.1
		l-3.9-7.3L276.4,292.2z"/>
	<path class="st3" d="M276.4,396.5c0,0,20-5.5,33.4-2.1s34.2,4.8,35.1,3.9c0.8-1,0,26.5,0,26.5l-2.5,1.9l-62.7,1.2l-3.3-4.6V396.5z"
		/>
	<path class="st3" d="M277.3,483.4c0,0,20-5.4,33.4-2.1c13.4,3.3,34.2,4.8,35.1,3.8c0.8-1,0,26.2,0,26.2l-3,4.3H282l-4.7-5.8V483.4z
		"/>
	<text transform="matrix(1 -6.020012e-03 6.020012e-03 1 117.0935 407.9051)" class="st4 st5 st9">Ae</text>
	<path class="st2" d="M109.4,467.2c0,0,20-8.3,33.4-3.2c13.4,5.1,34.2,7.3,35.1,5.8s1.6,40.6,1.6,40.6l-3.9,4.5l-61.3,0.6l-5.6-3.9
		L109.4,467.2z"/>
	<g>
		<text transform="matrix(1 0 0 1 75.5693 110.7783)" class="st4 st5 st6">DESIGN</text>
	</g>
</g>
<g id="border">
	<path class="st10" d="M169.5,252.8h-51c-5.5,0-10-4.5-10-10v-51c0-5.5,4.5-10,10-10h51c5.5,0,10,4.5,10,10v51
		C179.5,248.3,175,252.8,169.5,252.8z"/>
	<path class="st10" d="M169.5,340.5h-51c-5.5,0-10-4.5-10-10v-51c0-5.5,4.5-10,10-10h51c5.5,0,10,4.5,10,10v51
		C179.5,336,175,340.5,169.5,340.5z"/>
	<text transform="matrix(1 0 0 1 122.0254 320.9263)" class="st4 st5 st11">Ai</text>
	<path class="st10" d="M169.5,428.2h-51c-5.5,0-10-4.5-10-10v-51c0-5.5,4.5-10,10-10h51c5.5,0,10,4.5,10,10v51
		C179.5,423.7,175,428.2,169.5,428.2z"/>
	<text transform="matrix(1 0 0 1 117.0156 487.0786)" class="st4 st5 st12">Rhino</text>
	<path class="st10" d="M169.5,515.8h-51c-5.5,0-10-4.5-10-10v-51c0-5.5,4.5-10,10-10h51c5.5,0,10,4.5,10,10v51
		C179.5,511.3,175,515.8,169.5,515.8z"/>
	<text transform="matrix(1 0 0 1 122.0254 233.2578)" class="st4 st5 st11">Ps</text>
	<path class="st10" d="M336.6,253h-51c-5.5,0-10-4.5-10-10v-51c0-5.5,4.5-10,10-10h51c5.5,0,10,4.5,10,10v51
		C346.6,248.5,342.1,253,336.6,253z"/>
	<text transform="matrix(1 0 0 1 282.4277 227.0225)" class="st4 st5 st13">HTML</text>
	<path class="st10" d="M336.6,340.6h-51c-5.5,0-10-4.5-10-10v-51c0-5.5,4.5-10,10-10h51c5.5,0,10,4.5,10,10v51
		C346.6,336.1,342.1,340.6,336.6,340.6z"/>
	<text transform="matrix(1 0 0 1 288.4277 314.1904)" class="st4 st5 st14">CSS</text>
	<path class="st10" d="M336.6,428.3h-51c-5.5,0-10-4.5-10-10v-51c0-5.5,4.5-10,10-10h51c5.5,0,10,4.5,10,10v51
		C346.6,423.8,342.1,428.3,336.6,428.3z"/>
	<text transform="matrix(1 0 0 1 284.0996 389.3423)"><tspan x="0" y="0" class="st4 st5 st15">JAVA-</tspan><tspan x="0" y="18" class="st4 st5 st15">SCRIPT</tspan></text>
	<path class="st10" d="M337.4,516h-51c-5.5,0-10-4.5-10-10v-51c0-5.5,4.5-10,10-10h51c5.5,0,10,4.5,10,10v51
		C347.4,511.5,342.9,516,337.4,516z"/>
	<text transform="matrix(1 0 0 1 282.4277 485.8164)" class="st4 st5 st16">PYTHON</text>
</g>
</svg>
